HIERARCHY
ROOT Hips
{
  OFFSET 53.1892 95.7529 9.73926
  CHANNELS 6 Xposition Yposition Zposition Zrotation Xrotation Yrotation
  JOINT spine
  {
    OFFSET 0 7.96568 0.458067
    CHANNELS 3 Zrotation Xrotation Yrotation
    JOINT spine1
    {
      OFFSET 0 10.2431 0
      CHANNELS 3 Zrotation Xrotation Yrotation
      JOINT spine2
      {
        OFFSET 0 9.81475 0
        CHANNELS 3 Zrotation Xrotation Yrotation
        JOINT Neck
        {
          OFFSET 0 25.1986 1.20138
          CHANNELS 3 Zrotation Xrotation Yrotation
          JOINT Head
          {
            OFFSET 0 7.61315 0
            CHANNELS 3 Zrotation Xrotation Yrotation
            End Site
            {
              OFFSET 0 18.4281 -6.07733
            }
          }
        }
        JOINT RightShoulder
        {
          OFFSET -4.1327 10.5992 -0.575451
          CHANNELS 3 Zrotation Xrotation Yrotation
          JOINT RightArm
          {
            OFFSET 0 13.9018 0
            CHANNELS 3 Zrotation Xrotation Yrotation
            JOINT RightArmRoll
            {
              OFFSET 0 7.01789 0
              CHANNELS 3 Zrotation Xrotation Yrotation
              JOINT RightForeArm
              {
                OFFSET 0 20.4406 0
                CHANNELS 3 Zrotation Xrotation Yrotation
                JOINT RightForeArmRoll
                {
                  OFFSET 0 7.87516 0
                  CHANNELS 3 Zrotation Xrotation Yrotation
                  JOINT RightHand
                  {
                    OFFSET 0 15.8037 0
                    CHANNELS 3 Zrotation Xrotation Yrotation
                    End Site
                    {
                      OFFSET 0 0 0
                    }
                  }
                }
              }
            }
          }
        }
        JOINT LeftShoulder
        {
          OFFSET 4.1327 10.5992 -0.575451
          CHANNELS 3 Zrotation Xrotation Yrotation
          JOINT LeftArm
          {
            OFFSET 0 13.9018 0
            CHANNELS 3 Zrotation Xrotation Yrotation
            JOINT LeftArmRoll
            {
              OFFSET 0 7.01788 0
              CHANNELS 3 Zrotation Xrotation Yrotation
              JOINT LeftForeArm
              {
                OFFSET 0 20.4406 0
                CHANNELS 3 Zrotation Xrotation Yrotation
                JOINT LeftForeArmRoll
                {
                  OFFSET 0 7.87516 0
                  CHANNELS 3 Zrotation Xrotation Yrotation
                  JOINT LeftHand
                  {
                    OFFSET 0 15.8037 0
                    CHANNELS 3 Zrotation Xrotation Yrotation
                    End Site
                    {
                      OFFSET 0 0 0
                    }
                  }
                }
              }
            }
          }
        }
      }
    }
  }
  JOINT RightUpLeg
  {
    OFFSET -7.06048 -1.2947 -1.0861
    CHANNELS 3 Zrotation Xrotation Yrotation
    JOINT RightUpLegRoll
    {
      OFFSET 0 18.5308 0
      CHANNELS 3 Zrotation Xrotation Yrotation
      JOINT RightLeg
      {
        OFFSET 0 -22.9476 0
        CHANNELS 3 Zrotation Xrotation Yrotation
        JOINT RightLegRoll
        {
          OFFSET 0 23.0226 0
          CHANNELS 3 Zrotation Xrotation Yrotation
          JOINT RightFoot
          {
            OFFSET 0 19.1625 0
            CHANNELS 3 Zrotation Xrotation Yrotation
            JOINT RightToeBase
            {
              OFFSET 0 16.0188 0
              CHANNELS 3 Zrotation Xrotation Yrotation
              End Site
              {
                OFFSET 0.00678979 7.75781 -0.894207
              }
            }
          }
        }
      }
    }
  }
  JOINT LeftUpLeg
  {
    OFFSET 7.06048 -1.2947 -1.0861
    CHANNELS 3 Zrotation Xrotation Yrotation
    JOINT LeftUpLegRoll
    {
      OFFSET 0 18.5309 0
      CHANNELS 3 Zrotation Xrotation Yrotation
      JOINT LeftLeg
      {
        OFFSET 0 22.9475 0
        CHANNELS 3 Zrotation Xrotation Yrotation
        JOINT LeftLegRoll
        {
          OFFSET 0 23.2355 0
          CHANNELS 3 Zrotation Xrotation Yrotation
          JOINT LeftFoot
          {
            OFFSET 0 18.9496 0
            CHANNELS 3 Zrotation Xrotation Yrotation
            JOINT LeftToeBase
            {
              OFFSET 0 16.0188 0
              CHANNELS 3 Zrotation Xrotation Yrotation
              End Site
              {
                OFFSET -0.0304289 7.75781 -0.894207
              }
            }
          }
        }
      }
    }
  }
}
MOTION
Frames: 6
Frame Time: 0.00208333
53.0241 95.6327 12.0864 1.73166 -1.61492 5.87908 -0.281764 -2.22257 0.430408 -0.553126 -0.444468 0.884915 -0.563841 1.20047 0.894323 14.9157 32.5258 -11.2393 -7.14641 -3.04589 -5.70762 11.3547 -19.4873 -20.1631 -17.3804 39.7828 111.957 -1.48172e-005 3.19556e-007 2.60516e-006 -19.5458 53.5343 22.0978 -1.6189e-006 1.22461e-006 -3.00706 8.0301 -4.95139 0.697624 -77.8277 6.44456 -0.419757 -94.1892 16.9213 -25.2308 -9.54166e-015 -6.36111e-015 3.18055e-015 -1.39216 2.46001 -0.367128 -5.69763e-007 7.41597e-007 3.00081 -8.03034 -4.95138 -0.697623 173.258 -1.28225 -0.42793 180 7.01528e-015 178.842 177.598 10.0489 179.591 6.62385e-007 -5.90768e-006 0.254216 -22.1397 71.5939 23.112 8.16544 25.6574 -2.9201 -175.611 -0.345871 1.71225 4.54188e-006 -4.6773e-006 -1.11669 -1.57403 -4.65067 0.100947 3.86755e-006 -5.92031e-006 -0.0236332 18.4933 68.1013 -19.6159 -8.13649 25.2327 3.48773 
53.0247 95.6344 12.0813 1.721 -1.62531 5.86633 -0.283965 -2.21818 0.430306 -0.557916 -0.435704 0.88552 -0.56864 1.20924 0.895009 14.9208 32.4892 -11.2284 -7.1411 -3.04838 -5.69869 11.5882 -19.4294 -20.016 -17.2463 39.7507 111.742 -1.48172e-005 3.19556e-007 2.60516e-006 -19.5012 53.312 21.9554 -1.6189e-006 1.22461e-006 -3.00706 8.0301 -4.95139 0.697624 -77.8271 6.43885 -0.417575 -94.2316 16.9083 -25.1925 -4.77083e-015 3.18055e-015 -6.36111e-015 -1.41714 2.49019 -0.365296 -5.69763e-007 7.41597e-007 3.00081 -8.03034 -4.95138 -0.697623 173.261 -1.28842 -0.426822 180 7.01527e-015 178.841 177.596 10.0381 179.592 6.62385e-007 -5.90768e-006 0.25362 -22.1213 71.577 23.0922 8.16556 25.6592 -2.91754 -175.607 -0.34945 1.71165 4.54188e-006 -4.6773e-006 -1.11671 -1.57034 -4.65727 0.101845 3.86755e-006 -5.92031e-006 -0.0234748 18.4901 68.1004 -19.6152 -8.13649 25.2327 3.48773 
53.0315 95.6345 12.0758 1.71021 -1.63478 5.85337 -0.286153 -2.21407 0.430159 -0.562642 -0.427506 0.885956 -0.573373 1.21743 0.895525 14.9245 32.4538 -11.2172 -7.13601 -3.05127 -5.68991 11.823 -19.3714 -19.8693 -17.1086 39.7214 111.522 -1.48172e-005 3.19556e-007 2.60516e-006 -19.454 53.0871 21.8097 -1.6189e-006 1.22461e-006 -3.00706 8.0301 -4.95139 0.697624 -77.8281 6.43243 -0.414865 -94.2717 16.8958 -25.1554 -4.77083e-015 -3.18055e-015 -3.18055e-015 -1.44171 2.51892 -0.36351 -5.69763e-007 7.41597e-007 3.00082 -8.03034 -4.95138 -0.697623 173.264 -1.2935 -0.425796 180 7.01527e-015 178.841 177.594 10.0272 179.592 6.62385e-007 -5.90768e-006 0.253007 -22.1031 71.5603 23.0726 8.16567 25.6608 -2.91517 -175.603 -0.351764 1.71102 4.54188e-006 -4.6773e-006 -1.11673 -1.56672 -4.66434 0.102731 3.86755e-006 -5.92031e-006 -0.023319 18.4865 68.0995 -19.6144 -8.13649 25.2327 3.48773 
53.0327 95.6379 12.0614 1.69929 -1.64326 5.84021 -0.288326 -2.21029 0.429957 -0.567297 -0.419951 0.886177 -0.578033 1.22499 0.895825 14.9266 32.4201 -11.2056 -7.13084 -3.05473 -5.68122 12.0585 -19.3134 -19.7236 -16.9671 39.6961 111.297 -1.48172e-005 3.19556e-007 2.60516e-006 -19.4038 52.8602 21.6605 -1.6189e-006 1.22461e-006 -3.00706 8.0301 -4.95139 0.697624 -77.8309 6.425 -0.411432 -94.3092 16.8842 -25.1197 -3.18055e-015 6.36111e-015 -9.54166e-015 -1.46571 2.54582 -0.36179 -5.69763e-007 7.41597e-007 3.00082 -8.03034 -4.95138 -0.697623 173.268 -1.29731 -0.424875 180 7.01527e-015 178.841 177.591 10.0167 179.592 6.62385e-007 -5.90768e-006 0.252377 -22.0854 71.544 23.0535 8.16578 25.6623 -2.91304 -175.599 -0.352683 1.71027 4.54188e-006 -4.6773e-006 -1.11673 -1.56325 -4.67197 0.103596 3.86755e-006 -5.92031e-006 -0.0231661 18.4824 68.0986 -19.6136 -8.13649 25.2327 3.48773 
53.0402 95.6391 12.0576 1.68828 -1.65066 5.82682 -0.290483 -2.20686 0.42969 -0.571876 -0.413114 0.886137 -0.582614 1.23182 0.895862 14.9265 32.3886 -11.1933 -7.12534 -3.05891 -5.67256 12.2936 -19.2558 -19.5796 -16.8216 39.6761 111.065 -1.48172e-005 3.19556e-007 2.60516e-006 -19.35 52.6321 21.5076 -1.6189e-006 1.22461e-006 -3.00706 8.0301 -4.95139 0.697624 -77.8362 6.41628 -0.407082 -94.3432 16.8738 -25.0857 3.18055e-015 -3.18055e-015 -6.36111e-015 -1.48897 2.57047 -0.360154 -5.69763e-007 7.41597e-007 3.00083 -8.03034 -4.95138 -0.697623 173.271 -1.29971 -0.424082 180 7.01527e-015 178.841 177.589 10.0065 179.592 6.62385e-007 -5.90768e-006 0.251732 -22.0683 71.5282 23.035 8.16587 25.6636 -2.9112 -175.595 -0.352078 1.70935 4.54188e-006 -4.6773e-006 -1.11672 -1.55997 -4.68026 0.104431 3.86755e-006 -5.92031e-006 -0.0230165 18.4777 68.0977 -19.6128 -8.13649 25.2327 3.48773 
53.0461 95.6393 12.0443 1.67718 -1.65691 5.81318 -0.292623 -2.20383 0.429348 -0.576372 -0.407073 0.88579 -0.587107 1.23786 0.895591 14.9238 32.3599 -11.1803 -7.11922 -3.06399 -5.66389 12.5274 -19.1987 -19.438 -16.6718 39.6625 110.828 -1.48172e-005 3.19556e-007 2.60516e-006 -19.2922 52.4036 21.3509 -1.6189e-006 1.22461e-006 -3.00706 8.0301 -4.95139 0.697624 -77.8442 6.40596 -0.401624 -94.3733 16.8649 -25.0537 9.54166e-015 1.59028e-014 9.54166e-015 -1.51133 2.59248 -0.358619 -5.69763e-007 7.41597e-007 3.00084 -8.03034 -4.95138 -0.697623 173.274 -1.30051 -0.423437 180 7.01527e-015 178.84 177.586 9.99696 179.593 6.62385e-007 -5.90768e-006 0.251072 -22.052 71.513 23.0173 8.16594 25.6648 -2.9097 -175.591 -0.349822 1.70817 4.54188e-006 -4.6773e-006 -1.11671 -1.55697 -4.68931 0.105227 3.86755e-006 -5.92031e-006 -0.0228705 18.4724 68.0967 -19.612 -8.13649 25.2327 3.48773 
